Coordinates
version=1
nRows=13
nColumns=63
inDegrees=yes

Units are S.I. units (second, meters, Newtons, ...)
If the header above contains a line with 'inDegrees', this indicates whether rotational values are in degrees (yes) or radians (no).

endheader
time	pelvis_tilt	pelvis_list	pelvis_rotation	pelvis_tx	pelvis_ty	pelvis_tz	hip_flexion_r	hip_adduction_r	hip_rotation_r	knee_angle_r	knee_angle_r_beta	ankle_angle_r	subtalar_angle_r	mtp_angle_r	hip_flexion_l	hip_adduction_l	hip_rotation_l	knee_angle_l	knee_angle_l_beta	ankle_angle_l	subtalar_angle_l	mtp_angle_l	L5_S1_Flex_Ext	L5_S1_Lat_Bending	L5_S1_axial_rotation	L4_L5_Flex_Ext	L4_L5_Lat_Bending	L4_L5_axial_rotation	L3_L4_Flex_Ext	L3_L4_Lat_Bending	L3_L4_axial_rotation	L2_L3_Flex_Ext	L2_L3_Lat_Bending	L2_L3_axial_rotation	L1_L2_Flex_Ext	L1_L2_Lat_Bending	L1_L2_axial_rotation	L1_T12_Flex_Ext	L1_T12_Lat_Bending	L1_T12_axial_rotation	Abs_r3	Abs_r2	Abs_r1	Abs_t1	Abs_t2	neck_flexion	neck_bending	neck_rotation	arm_flex_r	arm_add_r	arm_rot_r	elbow_flex_r	pro_sup_r	wrist_flex_r	wrist_dev_r	arm_flex_l	arm_add_l	arm_rot_l	elbow_flex_l	pro_sup_l	wrist_flex_l	wrist_dev_l
3.950000	3.458219	-2.961526	113.183670	-0.159880	0.827947	0.619912	0.224161	-3.038916	-28.367057	19.923091	0.347724	35.037490	3.349971	0.000000	1.185284	-0.753132	4.358020	11.665934	0.203609	37.094909	17.081455	0.000000	0.029239	0.352226	-1.796193	0.054299	0.468461	-1.908455	0.048036	0.856403	-1.908455	0.033417	0.856403	-1.571669	0.027151	0.718260	-1.459407	0.016707	0.545599	-1.347145	0.208849	3.984455	-9.989888	0.000000	0.000000	23.145179	11.436288	9.292261	87.101974	-32.079914	61.539972	101.128162	79.496677	-4.575449	16.096441	74.920642	-80.887671	18.137840	47.421223	83.739160	-21.088712	2.801639
3.966667	3.401308	-2.965053	113.419501	-0.160662	0.827773	0.620260	0.188989	-3.133666	-28.584982	19.976090	0.348649	35.132334	3.309312	0.000000	1.242823	-0.665271	4.573130	11.815794	0.206225	37.052576	17.000801	0.000000	0.049839	0.327877	-1.847406	0.092556	0.436077	-1.962869	0.081881	0.797201	-1.962869	0.056961	0.797201	-1.616480	0.046281	0.668607	-1.501018	0.028478	0.507882	-1.385555	0.355996	3.709013	-10.274719	0.000000	0.000000	22.986453	12.306515	11.854830	86.287865	-32.972020	62.597891	102.529262	77.030770	-4.410810	16.658508	72.894558	-81.308100	17.249067	45.954938	84.857963	-21.407437	4.104111
3.983333	3.289904	-2.959302	113.635278	-0.161248	0.827636	0.620634	0.128023	-3.258435	-28.711972	20.022661	0.349461	35.207497	3.178697	0.000000	1.274137	-0.537862	4.760320	11.959962	0.208741	37.008099	16.927448	0.000000	0.068067	0.294631	-1.882477	0.126407	0.391859	-2.000132	0.111827	0.716365	-2.000132	0.077793	0.716365	-1.647168	0.063207	0.600811	-1.529513	0.038893	0.456383	-1.411858	0.486194	3.332921	-10.469775	0.000000	0.000000	22.858288	13.021218	14.206977	85.294736	-34.006817	63.220556	103.991662	73.310420	-4.805603	17.705721	71.080264	-81.351846	16.294706	44.619729	85.536745	-21.720902	5.281005
4.000000	3.155045	-2.940543	113.803311	-0.161672	0.827542	0.621012	0.048787	-3.396603	-28.792177	20.065800	0.350214	35.276744	3.074690	0.000000	1.278783	-0.397870	4.917336	12.084599	0.210916	36.970556	16.848555	0.000000	0.084210	0.260222	-1.892528	0.156387	0.346095	-2.010811	0.138349	0.632704	-2.010811	0.096244	0.632704	-1.655962	0.078198	0.530645	-1.537679	0.048118	0.403084	-1.419396	0.601505	2.943684	-10.525672	0.000000	0.000000	22.733655	13.450032	16.280249	84.194320	-35.182279	63.493812	105.507969	68.596863	-5.851852	19.232598	69.248562	-80.868055	14.653858	43.471215	86.005675	-21.949480	6.322594
4.016667	2.979943	-2.922538	113.897122	-0.161828	0.827469	0.621345	-0.031326	-3.557864	-28.750030	20.110014	0.350986	35.327136	2.917965	0.000000	1.267837	-0.229318	5.010348	12.197143	0.212880	36.953818	16.784665	0.000000	0.096779	0.222888	-1.878311	0.179729	0.296442	-1.995706	0.158999	0.541931	-1.995706	0.110609	0.541931	-1.643522	0.089869	0.454514	-1.526128	0.055300	0.345254	-1.408733	0.691286	2.521359	-10.446604	0.000000	0.000000	22.585860	13.614222	18.058058	83.054119	-36.457396	63.474541	107.065809	63.208112	-7.385697	21.063126	67.651164	-79.888158	12.497162	42.488483	86.297613	-21.914475	7.068718
4.033333	2.749798	-2.918083	113.945999	-0.161722	0.827411	0.621569	-0.115285	-3.762574	-28.648254	20.157197	0.351809	35.364653	2.741551	0.000000	1.237044	-0.014868	5.076397	12.274202	0.214225	36.941623	16.744678	0.000000	0.106200	0.181113	-1.849898	0.197225	0.240881	-1.965517	0.174477	0.440359	-1.965517	0.121376	0.440359	-1.618661	0.098618	0.369327	-1.503042	0.060683	0.280545	-1.387424	0.758578	2.048792	-10.288579	0.000000	0.000000	22.359430	13.592582	19.578622	81.931017	-37.826881	63.264554	108.668217	57.174671	-9.331040	22.924212	66.252295	-78.441999	9.721468	41.680450	86.660680	-21.658290	7.482067
4.050000	2.488758	-2.929486	113.932352	-0.161384	0.827366	0.621660	-0.192896	-3.997627	-28.511813	20.210037	0.352732	35.374029	2.582864	0.000000	1.201482	0.227547	5.108340	12.330302	0.215204	36.943882	16.713632	0.000000	0.111965	0.139916	-1.818997	0.207930	0.186089	-1.932684	0.183947	0.340193	-1.932684	0.127965	0.340193	-1.591622	0.103971	0.285318	-1.477935	0.063977	0.216731	-1.364248	0.799756	1.582763	-10.116714	0.000000	0.000000	22.061706	13.359192	20.903557	80.925252	-39.225250	62.976184	110.297695	50.759143	-11.557181	24.690941	64.985513	-76.660598	6.326915	41.113318	87.059218	-20.994005	7.436787
4.066667	2.221998	-2.950221	113.861470	-0.160874	0.827334	0.621632	-0.260877	-4.238407	-28.341905	20.268890	0.353759	35.356155	2.440391	0.000000	1.160163	0.473939	5.107836	12.354263	0.215623	36.957860	16.705842	0.000000	0.114293	0.101803	-1.790065	0.212253	0.135397	-1.901944	0.187771	0.247523	-1.901944	0.130625	0.247523	-1.566307	0.106132	0.207596	-1.454428	0.065307	0.157692	-1.342549	0.816381	1.151611	-9.955806	0.000000	0.000000	21.706054	12.937306	21.920383	80.045913	-40.694578	62.667809	111.913771	43.735436	-13.991057	26.166099	63.660840	-74.616525	2.324749	40.839694	87.526559	-20.327699	7.015418
4.083333	1.944518	-2.977275	113.722131	-0.160194	0.827337	0.621485	-0.315690	-4.487656	-28.109206	20.339682	0.354994	35.301745	2.265805	0.000000	1.105289	0.727802	5.056059	12.344112	0.215445	36.979806	16.727829	0.000000	0.113139	0.063172	-1.759166	0.210110	0.084019	-1.869113	0.185876	0.153596	-1.869113	0.129306	0.153596	-1.539270	0.105061	0.128820	-1.429322	0.064648	0.097853	-1.319374	0.808140	0.714615	-9.783952	0.000000	0.000000	21.332784	12.291074	22.374105	79.168417	-42.267675	62.202473	113.498394	36.637056	-16.583607	27.445565	62.518494	-72.365118	-1.774283	40.827374	87.924787	-19.872668	6.084596
4.100000	1.683917	-3.005451	113.516093	-0.159368	0.827384	0.621285	-0.345359	-4.720574	-27.817157	20.425327	0.356489	35.203022	2.059443	0.000000	1.046483	0.961672	4.945164	12.305665	0.214774	37.010248	16.777606	0.000000	0.109105	0.025717	-1.731345	0.202620	0.034203	-1.839554	0.179249	0.062527	-1.839554	0.124697	0.062527	-1.514927	0.101315	0.052441	-1.406718	0.062343	0.039835	-1.298509	0.779329	0.290912	-9.629223	0.000000	0.000000	20.980971	11.467291	22.223687	78.290969	-43.913024	61.590715	114.899368	29.676635	-19.197153	28.405238	61.576272	-69.957236	-5.752879	41.091888	88.186360	-19.900362	4.723649
4.116667	1.455506	-3.017892	113.220581	-0.158370	0.827515	0.621080	-0.347499	-4.914670	-27.426339	20.530923	0.358332	35.047775	1.798561	0.000000	0.977752	1.153743	4.739484	12.249256	0.213790	37.046001	16.840898	0.000000	0.099734	-0.009420	-1.720905	0.185215	-0.012529	-1.828462	0.163852	-0.022905	-1.828462	0.113986	-0.022905	-1.505792	0.092613	-0.019210	-1.398235	0.056988	-0.014592	-1.290679	0.712388	-0.106565	-9.571158	0.000000	0.000000	20.664452	10.595578	21.605863	77.394457	-45.440661	60.789446	115.905267	23.559926	-21.744201	29.011274	60.459406	-67.599481	-9.781347	41.760532	88.214806	-20.567787	3.312862
4.133333	1.244619	-3.026143	112.815769	-0.157156	0.827748	0.620901	-0.310185	-5.081259	-26.892755	20.647577	0.360368	34.825217	1.447055	0.000000	0.900169	1.319251	4.396019	12.168082	0.212373	37.069109	16.927670	0.000000	0.086617	-0.046743	-1.720531	0.160857	-0.062168	-1.828065	0.142303	-0.113650	-1.828065	0.098995	-0.113650	-1.505465	0.080433	-0.095318	-1.397932	0.049493	-0.072405	-1.290399	0.618697	-0.528764	-9.569080	0.000000	0.000000	20.410747	9.657357	20.428652	76.520434	-46.832899	59.808625	116.417756	18.565511	-24.044484	29.276680	59.447737	-65.266861	-13.525857	42.819080	88.025277	-21.694372	2.063262
4.150000	1.070322	-3.015574	112.258257	-0.155668	0.828092	0.620743	-0.234195	-5.193518	-26.173635	20.776773	0.362623	34.530355	1.011594	0.000000	0.796731	1.432582	3.868649	12.059496	0.210478	37.076766	17.017818	0.000000	0.068159	-0.083532	-1.736739	0.126578	-0.111097	-1.845285	0.111979	-0.203099	-1.845285	0.077899	-0.203099	-1.519647	0.063293	-0.170338	-1.411101	0.038946	-0.129390	-1.302554	0.486854	-0.944926	-9.659222	0.000000	0.000000	20.209286	8.844256	18.964989	75.864228	-47.966033	58.823960	116.339290	14.902732	-25.921041	29.255323	58.495959	-63.064717	-17.029295	44.315605	87.854530	-22.991600	1.427170
